<svg width="139" height="28" viewBox="0 0 139 28" fill="none" xmlns="http://www.w3.org/2000/svg">
<path d="M53.0294 17.6055C53.0294 17.2539 52.9747 16.9414 52.8654 16.668C52.7638 16.3945 52.5802 16.1445 52.3146 15.918C52.049 15.6914 51.674 15.4727 51.1896 15.2617C50.713 15.043 50.1036 14.8203 49.3615 14.5938C48.549 14.3438 47.799 14.0664 47.1115 13.7617C46.4318 13.4492 45.838 13.0898 45.3302 12.6836C44.8224 12.2695 44.4279 11.7969 44.1466 11.2656C43.8654 10.7266 43.7247 10.1055 43.7247 9.40234C43.7247 8.70703 43.8693 8.07422 44.1583 7.50391C44.4552 6.93359 44.8732 6.44141 45.4122 6.02734C45.9591 5.60547 46.6036 5.28125 47.3458 5.05469C48.088 4.82031 48.9083 4.70312 49.8068 4.70312C51.0724 4.70312 52.1622 4.9375 53.0763 5.40625C53.9982 5.875 54.7052 6.50391 55.1974 7.29297C55.6974 8.08203 55.9474 8.95312 55.9474 9.90625H53.0294C53.0294 9.34375 52.9083 8.84766 52.6661 8.41797C52.4318 7.98047 52.0724 7.63672 51.588 7.38672C51.1115 7.13672 50.506 7.01172 49.7716 7.01172C49.0763 7.01172 48.4982 7.11719 48.0372 7.32812C47.5763 7.53906 47.2325 7.82422 47.006 8.18359C46.7794 8.54297 46.6661 8.94922 46.6661 9.40234C46.6661 9.72266 46.7404 10.0156 46.8888 10.2812C47.0372 10.5391 47.2638 10.7812 47.5685 11.0078C47.8732 11.2266 48.256 11.4336 48.7169 11.6289C49.1779 11.8242 49.7208 12.0117 50.3458 12.1914C51.2911 12.4727 52.1154 12.7852 52.8185 13.1289C53.5216 13.4648 54.1075 13.8477 54.5763 14.2773C55.045 14.707 55.3966 15.1953 55.631 15.7422C55.8654 16.2812 55.9825 16.8945 55.9825 17.582C55.9825 18.3008 55.838 18.9492 55.549 19.5273C55.2599 20.0977 54.8458 20.5859 54.3068 20.9922C53.7755 21.3906 53.1349 21.6992 52.3849 21.918C51.6427 22.1289 50.8146 22.2344 49.9005 22.2344C49.0802 22.2344 48.2716 22.125 47.4747 21.9062C46.6857 21.6875 45.9669 21.3555 45.3185 20.9102C44.67 20.457 44.1544 19.8945 43.7716 19.2227C43.3888 18.543 43.1974 17.75 43.1974 16.8438H46.1388C46.1388 17.3984 46.2325 17.8711 46.42 18.2617C46.6154 18.6523 46.8849 18.9727 47.2286 19.2227C47.5724 19.4648 47.9708 19.6445 48.424 19.7617C48.8849 19.8789 49.3771 19.9375 49.9005 19.9375C50.588 19.9375 51.1622 19.8398 51.6232 19.6445C52.0919 19.4492 52.4435 19.1758 52.6779 18.8242C52.9122 18.4727 53.0294 18.0664 53.0294 17.6055ZM57.7638 15.8008V15.5312C57.7638 14.6172 57.8966 13.7695 58.1622 12.9883C58.4279 12.1992 58.8107 11.5156 59.3107 10.9375C59.8185 10.3516 60.4357 9.89844 61.1622 9.57812C61.8966 9.25 62.7247 9.08594 63.6466 9.08594C64.5763 9.08594 65.4044 9.25 66.131 9.57812C66.8654 9.89844 67.4865 10.3516 67.9943 10.9375C68.5021 11.5156 68.8888 12.1992 69.1544 12.9883C69.42 13.7695 69.5529 14.6172 69.5529 15.5312V15.8008C69.5529 16.7148 69.42 17.5625 69.1544 18.3438C68.8888 19.125 68.5021 19.8086 67.9943 20.3945C67.4865 20.9727 66.8693 21.4258 66.1427 21.7539C65.4161 22.0742 64.5919 22.2344 63.67 22.2344C62.7404 22.2344 61.9083 22.0742 61.174 21.7539C60.4474 21.4258 59.8302 20.9727 59.3224 20.3945C58.8146 19.8086 58.4279 19.125 58.1622 18.3438C57.8966 17.5625 57.7638 16.7148 57.7638 15.8008ZM60.588 15.5312V15.8008C60.588 16.3711 60.6466 16.9102 60.7638 17.418C60.881 17.9258 61.0646 18.3711 61.3146 18.7539C61.5646 19.1367 61.8849 19.4375 62.2755 19.6562C62.6661 19.875 63.131 19.9844 63.67 19.9844C64.1935 19.9844 64.6466 19.875 65.0294 19.6562C65.42 19.4375 65.7404 19.1367 65.9904 18.7539C66.2404 18.3711 66.424 17.9258 66.5411 17.418C66.6661 16.9102 66.7286 16.3711 66.7286 15.8008V15.5312C66.7286 14.9688 66.6661 14.4375 66.5411 13.9375C66.424 13.4297 66.2365 12.9805 65.9786 12.5898C65.7286 12.1992 65.4083 11.8945 65.0177 11.6758C64.6349 11.4492 64.1779 11.3359 63.6466 11.3359C63.1154 11.3359 62.6544 11.4492 62.2638 11.6758C61.881 11.8945 61.5646 12.1992 61.3146 12.5898C61.0646 12.9805 60.881 13.4297 60.7638 13.9375C60.6466 14.4375 60.588 14.9688 60.588 15.5312ZM74.7208 12.0273V22H71.8966V9.32031H74.5568L74.7208 12.0273ZM74.2169 15.1914L73.3029 15.1797C73.3107 14.2812 73.4357 13.457 73.6779 12.707C73.9279 11.957 74.2716 11.3125 74.7091 10.7734C75.1544 10.2344 75.6857 9.82031 76.3029 9.53125C76.92 9.23438 77.6075 9.08594 78.3654 9.08594C78.9747 9.08594 79.5255 9.17188 80.0177 9.34375C80.5177 9.50781 80.9435 9.77734 81.295 10.1523C81.6544 10.5273 81.9279 11.0156 82.1154 11.6172C82.3029 12.2109 82.3966 12.9414 82.3966 13.8086V22H79.5607V13.7969C79.5607 13.1875 79.4708 12.707 79.2911 12.3555C79.1193 11.9961 78.8654 11.7422 78.5294 11.5938C78.2013 11.4375 77.7911 11.3594 77.299 11.3594C76.8146 11.3594 76.381 11.4609 75.9982 11.6641C75.6154 11.8672 75.2911 12.1445 75.0255 12.4961C74.7677 12.8477 74.5685 13.2539 74.4279 13.7148C74.2872 14.1758 74.2169 14.668 74.2169 15.1914ZM88.3029 4V22H85.4669V4H88.3029ZM94.42 9.32031V22H91.5841V9.32031H94.42ZM91.3966 5.99219C91.3966 5.5625 91.5372 5.20703 91.8185 4.92578C92.1075 4.63672 92.506 4.49219 93.0138 4.49219C93.5138 4.49219 93.9083 4.63672 94.1974 4.92578C94.4865 5.20703 94.631 5.5625 94.631 5.99219C94.631 6.41406 94.4865 6.76562 94.1974 7.04688C93.9083 7.32812 93.5138 7.46875 93.0138 7.46875C92.506 7.46875 92.1075 7.32812 91.8185 7.04688C91.5372 6.76562 91.3966 6.41406 91.3966 5.99219ZM97.5255 4H100.35V19.293L100.08 22H97.5255V4ZM108.623 15.543V15.7891C108.623 16.7266 108.518 17.5898 108.307 18.3789C108.104 19.1602 107.791 19.8398 107.369 20.418C106.955 20.9961 106.44 21.4453 105.822 21.7656C105.213 22.0781 104.506 22.2344 103.701 22.2344C102.912 22.2344 102.225 22.0859 101.639 21.7891C101.053 21.4922 100.561 21.0703 100.162 20.5234C99.7716 19.9766 99.4552 19.3242 99.213 18.5664C98.9708 17.8086 98.799 16.9727 98.6974 16.0586V15.2734C98.799 14.3516 98.9708 13.5156 99.213 12.7656C99.4552 12.0078 99.7716 11.3555 100.162 10.8086C100.561 10.2539 101.049 9.82812 101.627 9.53125C102.213 9.23438 102.897 9.08594 103.678 9.08594C104.49 9.08594 105.205 9.24219 105.822 9.55469C106.447 9.86719 106.967 10.3125 107.381 10.8906C107.795 11.4609 108.104 12.1406 108.307 12.9297C108.518 13.7188 108.623 14.5898 108.623 15.543ZM105.799 15.7891V15.543C105.799 14.9727 105.752 14.4375 105.658 13.9375C105.565 13.4297 105.408 12.9844 105.19 12.6016C104.979 12.2188 104.69 11.918 104.322 11.6992C103.963 11.4727 103.514 11.3594 102.975 11.3594C102.475 11.3594 102.045 11.4453 101.686 11.6172C101.326 11.7891 101.026 12.0234 100.783 12.3203C100.541 12.6172 100.35 12.9609 100.209 13.3516C100.076 13.7422 99.9865 14.1641 99.9396 14.6172V16.7383C100.01 17.3242 100.158 17.8633 100.385 18.3555C100.619 18.8398 100.947 19.2305 101.369 19.5273C101.791 19.8164 102.334 19.9609 102.998 19.9609C103.522 19.9609 103.963 19.8555 104.322 19.6445C104.682 19.4336 104.967 19.1406 105.178 18.7656C105.397 18.3828 105.553 17.9375 105.647 17.4297C105.748 16.9219 105.799 16.375 105.799 15.7891ZM113.85 11.7344V22H111.026V9.32031H113.721L113.85 11.7344ZM117.729 9.23828L117.705 11.8633C117.533 11.832 117.346 11.8086 117.143 11.793C116.947 11.7773 116.752 11.7695 116.557 11.7695C116.072 11.7695 115.647 11.8398 115.279 11.9805C114.912 12.1133 114.604 12.3086 114.354 12.5664C114.111 12.8164 113.924 13.1211 113.791 13.4805C113.658 13.8398 113.58 14.2422 113.557 14.6875L112.912 14.7344C112.912 13.9375 112.99 13.1992 113.147 12.5195C113.303 11.8398 113.537 11.2422 113.85 10.7266C114.17 10.2109 114.568 9.80859 115.045 9.51953C115.529 9.23047 116.088 9.08594 116.721 9.08594C116.893 9.08594 117.076 9.10156 117.272 9.13281C117.475 9.16406 117.627 9.19922 117.729 9.23828ZM118.654 15.8008V15.5312C118.654 14.6172 118.787 13.7695 119.053 12.9883C119.318 12.1992 119.701 11.5156 120.201 10.9375C120.709 10.3516 121.326 9.89844 122.053 9.57812C122.787 9.25 123.615 9.08594 124.537 9.08594C125.467 9.08594 126.295 9.25 127.022 9.57812C127.756 9.89844 128.377 10.3516 128.885 10.9375C129.393 11.5156 129.779 12.1992 130.045 12.9883C130.311 13.7695 130.443 14.6172 130.443 15.5312V15.8008C130.443 16.7148 130.311 17.5625 130.045 18.3438C129.779 19.125 129.393 19.8086 128.885 20.3945C128.377 20.9727 127.76 21.4258 127.033 21.7539C126.307 22.0742 125.483 22.2344 124.561 22.2344C123.631 22.2344 122.799 22.0742 122.065 21.7539C121.338 21.4258 120.721 20.9727 120.213 20.3945C119.705 19.8086 119.318 19.125 119.053 18.3438C118.787 17.5625 118.654 16.7148 118.654 15.8008ZM121.479 15.5312V15.8008C121.479 16.3711 121.537 16.9102 121.654 17.418C121.772 17.9258 121.955 18.3711 122.205 18.7539C122.455 19.1367 122.776 19.4375 123.166 19.6562C123.557 19.875 124.022 19.9844 124.561 19.9844C125.084 19.9844 125.537 19.875 125.92 19.6562C126.311 19.4375 126.631 19.1367 126.881 18.7539C127.131 18.3711 127.315 17.9258 127.432 17.418C127.557 16.9102 127.619 16.3711 127.619 15.8008V15.5312C127.619 14.9688 127.557 14.4375 127.432 13.9375C127.315 13.4297 127.127 12.9805 126.869 12.5898C126.619 12.1992 126.299 11.8945 125.908 11.6758C125.526 11.4492 125.068 11.3359 124.537 11.3359C124.006 11.3359 123.545 11.4492 123.154 11.6758C122.772 11.8945 122.455 12.1992 122.205 12.5898C121.955 12.9805 121.772 13.4297 121.654 13.9375C121.537 14.4375 121.479 14.9688 121.479 15.5312ZM132.951 9.32031H135.787V23.1016C135.787 23.9688 135.639 24.6992 135.342 25.293C135.045 25.8945 134.608 26.3477 134.029 26.6523C133.451 26.9648 132.744 27.1211 131.908 27.1211C131.658 27.1211 131.401 27.1016 131.135 27.0625C130.861 27.0312 130.604 26.9844 130.361 26.9219L130.373 24.7188C130.537 24.75 130.713 24.7734 130.901 24.7891C131.08 24.8125 131.252 24.8242 131.416 24.8242C131.752 24.8242 132.033 24.7656 132.26 24.6484C132.486 24.5312 132.658 24.3477 132.776 24.0977C132.893 23.8477 132.951 23.5156 132.951 23.1016V9.32031ZM132.705 5.99219C132.705 5.5625 132.85 5.20703 133.139 4.92578C133.428 4.63672 133.822 4.49219 134.322 4.49219C134.83 4.49219 135.225 4.63672 135.506 4.92578C135.795 5.20703 135.94 5.5625 135.94 5.99219C135.94 6.41406 135.795 6.76562 135.506 7.04688C135.225 7.32812 134.83 7.46875 134.322 7.46875C133.822 7.46875 133.428 7.32812 133.139 7.04688C132.85 6.76562 132.705 6.41406 132.705 5.99219Z" fill="#2E2E2E"/>
<g clip-path="url(#clip0_150_3)">
<mask id="mask0_150_3" style="mask-type:luminance" maskUnits="userSpaceOnUse" x="0" y="0" width="34" height="28">
<path d="M33.3185 0H0V27.0707H33.3185V0Z" fill="white"/>
</mask>
<g mask="url(#mask0_150_3)">
<path d="M33.3185 17.3521C33.3168 16.1142 32.9005 14.9125 32.1361 13.9388C31.3716 12.9651 30.3031 12.2755 29.1009 11.98C29.0065 8.74194 27.6538 5.66817 25.33 3.41119C23.0062 1.15421 19.8943 -0.108276 16.6548 -0.108276C13.4154 -0.108276 10.3035 1.15421 7.97969 3.41119C5.6559 5.66817 4.3032 8.74194 4.20872 11.98C3.00836 12.2774 1.94198 12.9679 1.17931 13.9413C0.416642 14.9148 0.00151326 16.1155 -3.8147e-06 17.3521L-3.8147e-06 18.7397C0.000464131 20.2121 0.585577 21.6241 1.62671 22.6652C2.66785 23.7064 4.0798 24.2915 5.5522 24.2919V12.4884C5.5522 9.5429 6.72231 6.718 8.80511 4.63519C10.8879 2.55238 13.7128 1.38227 16.6584 1.38227C19.6039 1.38227 22.4288 2.55238 24.5116 4.63519C26.5944 6.718 27.7645 9.5429 27.7645 12.4884V24.2884C29.2369 24.2879 30.6489 23.7028 31.69 22.6617C32.7311 21.6205 33.3163 20.2086 33.3167 18.7362L33.3185 17.3521Z" fill="#2E2E2E"/>
<path d="M16.6584 26.8606C16.8896 26.7829 17.1191 26.7194 17.3522 26.6523C18.4781 26.3097 19.6462 26.1255 20.823 26.105C22.4901 26.1047 24.141 26.4329 25.6813 27.0707V11.8C22.8092 10.5885 19.5842 10.5128 16.6584 11.5881C15.321 11.1048 13.9121 10.8488 12.4902 10.8307C10.8231 10.8305 9.17217 11.1586 7.63184 11.7964V27.0725C9.17205 26.434 10.823 26.1053 12.4902 26.105C13.667 26.1255 14.8351 26.3097 15.961 26.6523C16.1923 26.7194 16.4253 26.7829 16.6548 26.8606M17.3539 12.7727C19.6109 12.047 22.0385 12.047 24.2955 12.7727V25.1552C22.0177 24.5778 19.6318 24.5778 17.3539 25.1552V12.7727ZM9.02298 25.15V12.7727C11.2799 12.047 13.7076 12.047 15.9646 12.7727V25.1552C13.6867 24.5778 11.3008 24.5778 9.02298 25.1552" fill="#2E2E2E"/>
</g>
</g>
<defs>
<clipPath id="clip0_150_3">
<rect width="33.3185" height="27.0707" fill="white"/>
</clipPath>
</defs>
</svg>
